<?xml version="1.0" encoding="UTF-8" standalone="no"?>
<!DOCTYPE svg PUBLIC "-//W3C//DTD SVG 1.1//EN" "http://www.w3.org/Graphics/SVG/1.1/DTD/svg11.dtd">
<svg width="100%" height="100%" viewBox="0 0 1024 1024" version="1.1" xmlns="http://www.w3.org/2000/svg" xmlns:xlink="http://www.w3.org/1999/xlink" xml:space="preserve" xmlns:serif="http://www.serif.com/" style="fill-rule:evenodd;clip-rule:evenodd;stroke-linejoin:round;stroke-miterlimit:2;">
    <g transform="matrix(2.4647,0,0,2.46901,-1528.77,-1533.04)">
        <path d="M828,664C918.514,664 992,737.486 992,828C992,918.514 918.514,992 828,992C737.486,992 664,918.514 664,828C664,737.486 737.486,664 828,664ZM806.133,806.458L729.534,806.458C717.502,806.458 707.733,816.209 707.733,828.221L707.733,828.352C707.733,840.363 717.502,850.115 729.534,850.115L806.133,850.115L806.133,926.58C806.133,938.591 815.902,948.343 827.934,948.343L828.066,948.343C840.098,948.343 849.867,938.591 849.867,926.58L849.867,850.115L926.466,850.115C938.498,850.115 948.267,840.363 948.267,828.352L948.267,828.221C948.267,816.209 938.498,806.458 926.466,806.458L849.867,806.458L849.867,729.992C849.867,717.981 840.098,708.229 828.066,708.229L827.934,708.229C815.902,708.229 806.133,717.981 806.133,729.992L806.133,806.458Z"/>
    </g>
</svg>
