<?xml version="1.0" encoding="UTF-8" standalone="no"?>
<!DOCTYPE svg PUBLIC "-//W3C//DTD SVG 1.1//EN" "http://www.w3.org/Graphics/SVG/1.1/DTD/svg11.dtd">
<svg width="100%" height="100%" viewBox="0 0 1024 1024" version="1.1" xmlns="http://www.w3.org/2000/svg" xmlns:xlink="http://www.w3.org/1999/xlink" xml:space="preserve" xmlns:serif="http://www.serif.com/" style="fill-rule:evenodd;clip-rule:evenodd;stroke-linejoin:round;stroke-miterlimit:2;">
    <g id="copy">
    </g>
    <g transform="matrix(1.71429,0,0,0.87395,-664,192.134)">
        <path d="M537.833,604L482.783,604C463.586,604 448,573.428 448,535.773L448,196.227C448,158.572 463.586,128 482.783,128L537.833,128L537.833,201.231L497.141,201.231C490.624,201.231 485.333,211.609 485.333,224.393L485.333,507.623C485.333,520.407 490.624,530.785 497.141,530.785L537.833,530.785L537.833,604ZM834.167,128L889.217,128C908.414,128 924,158.572 924,196.227L924,535.773C924,573.428 908.414,604 889.217,604L834.167,604L834.167,530.785L874.859,530.785C881.376,530.785 886.667,520.407 886.667,507.623L886.667,224.393C886.667,211.609 881.376,201.231 874.859,201.231L834.167,201.231L834.167,128Z"/>
    </g>
    <g transform="matrix(0.87395,0,0,1.71429,-87.5294,-115.429)">
        <path d="M924,162.783L924,569.217C924,588.414 893.428,604 855.773,604L516.227,604C478.572,604 448,588.414 448,569.217L448,162.783C448,143.586 478.572,128 516.227,128L855.773,128C893.428,128 924,143.586 924,162.783ZM850.769,177.141C850.769,170.624 840.391,165.333 827.608,165.333L544.392,165.333C531.609,165.333 521.231,170.624 521.231,177.141L521.231,554.859C521.231,561.376 531.609,566.667 544.392,566.667L827.608,566.667C840.391,566.667 850.769,561.376 850.769,554.859L850.769,177.141Z"/>
    </g>
</svg>
