<?xml version="1.0" encoding="UTF-8" standalone="no"?>
<!DOCTYPE svg PUBLIC "-//W3C//DTD SVG 1.1//EN" "http://www.w3.org/Graphics/SVG/1.1/DTD/svg11.dtd">
<svg width="100%" height="100%" viewBox="0 0 1024 1024" version="1.1" xmlns="http://www.w3.org/2000/svg" xmlns:xlink="http://www.w3.org/1999/xlink" xml:space="preserve" xmlns:serif="http://www.serif.com/" style="fill-rule:evenodd;clip-rule:evenodd;stroke-linejoin:round;stroke-miterlimit:2;">
    <g transform="matrix(0.615385,0,0,1.31214,198.093,-113.044)">
        <path d="M552.975,673.328C565.759,710.263 487.164,750.272 372.016,764.184C252.296,778.648 138.108,759.458 117.18,721.358C96.252,683.258 176.46,640.582 296.18,626.118C360.209,618.382 422.655,620.273 470.098,629.534L470.098,326.276C468.46,308.327 470.098,254.989 470.098,254.989L470.098,187.454C470.098,176.728 488.666,168.02 511.537,168.02C531.671,168.02 548.471,174.769 552.202,183.702C559.934,199.301 562.08,211.729 582.098,221.222C613.748,236.23 688.707,256.279 742.098,273.749C799.432,292.509 884.765,313.769 926.098,333.78C959.29,349.848 988.809,371.447 990.098,393.811C991.432,416.948 962.084,448.226 934.098,472.601C896.765,505.118 766.098,588.911 766.098,588.911C766.098,588.911 876.765,484.482 902.098,450.09C917.868,428.681 942.433,402.12 918.098,382.555C890.098,360.043 791.432,328.777 734.098,315.02C685.678,303.402 618.098,298.136 574.098,300.012C565.992,300.358 559.178,301.671 552.975,303.538L552.975,673.328Z"/>
    </g>
</svg>
