<?xml version="1.0" encoding="UTF-8" standalone="no"?>
<!DOCTYPE svg PUBLIC "-//W3C//DTD SVG 1.1//EN" "http://www.w3.org/Graphics/SVG/1.1/DTD/svg11.dtd">
<svg width="100%" height="100%" viewBox="0 0 1024 1024" version="1.1" xmlns="http://www.w3.org/2000/svg" xmlns:xlink="http://www.w3.org/1999/xlink" xml:space="preserve" xmlns:serif="http://www.serif.com/" style="fill-rule:evenodd;clip-rule:evenodd;stroke-linejoin:round;stroke-miterlimit:2;">
    <g>
        <g transform="matrix(1.98154,1.97826,-0.471014,0.471795,490.164,-389.858)">
            <path d="M384,863.716C384,828.55 377.202,800 368.829,800L79.171,800C70.798,800 64,828.55 64,863.716L64,928.284C64,963.45 70.798,992 79.171,992L368.829,992C377.202,992 384,963.45 384,928.284L384,863.716Z"/>
        </g>
        <g transform="matrix(1.97826,-1.98154,0.471795,0.471014,-353.858,497.836)">
            <path d="M384,863.716C384,828.55 377.202,800 368.829,800L79.171,800C70.798,800 64,828.55 64,863.716L64,928.284C64,963.45 70.798,992 79.171,992L368.829,992C377.202,992 384,963.45 384,928.284L384,863.716Z"/>
        </g>
    </g>
    <g transform="matrix(1.98154,1.97826,-0.471014,0.471795,490.164,-389.858)">
        <path d="M201.143,800L201.143,287.716C201.143,252.55 207.941,224 216.313,224L231.687,224C240.059,224 246.857,252.55 246.857,287.716L246.857,800L368.829,800C377.202,800 384,828.55 384,863.716L384,928.284C384,963.45 377.202,992 368.829,992L246.857,992L246.857,1504.28C246.857,1539.45 240.059,1568 231.687,1568L216.313,1568C207.941,1568 201.143,1539.45 201.143,1504.28L201.143,992L79.171,992C70.798,992 64,963.45 64,928.284L64,863.716C64,828.55 70.798,800 79.171,800L201.143,800Z"/>
    </g>
</svg>
