<?xml version="1.0" encoding="UTF-8" standalone="no"?>
<!DOCTYPE svg PUBLIC "-//W3C//DTD SVG 1.1//EN" "http://www.w3.org/Graphics/SVG/1.1/DTD/svg11.dtd">
<svg width="100%" height="100%" viewBox="0 0 1024 1024" version="1.1" xmlns="http://www.w3.org/2000/svg" xmlns:xlink="http://www.w3.org/1999/xlink" xml:space="preserve" xmlns:serif="http://www.serif.com/" style="fill-rule:evenodd;clip-rule:evenodd;stroke-linejoin:round;stroke-miterlimit:2;">
    <g transform="matrix(0.902983,0,0,0.902983,-498.328,-226.409)">
        <path d="M817.528,515.306L817.528,515.017C817.684,493.456 835.237,476 856.834,476C864.332,476 871.342,478.104 877.306,481.752L1400.32,783.7L1400.31,783.712C1412.2,790.474 1420.23,803.259 1420.23,817.904C1420.23,834.075 1410.44,847.978 1396.48,854.009L877.294,1153.74C876.733,1154.09 876.162,1154.42 875.583,1154.73L873.21,1156.1L873.128,1155.96C868.163,1158.23 862.645,1159.49 856.834,1159.49C835.14,1159.49 817.527,1141.88 817.527,1120.18L817.528,515.306ZM1420.24,515.306L1420.24,515.017C1420.4,493.456 1437.95,476 1459.55,476C1481.15,476 1498.7,493.456 1498.86,515.017L1498.86,515.306L1498.86,1120.18C1498.86,1141.88 1481.24,1159.49 1459.55,1159.49C1437.86,1159.49 1420.24,1141.88 1420.24,1120.18L1420.24,515.306Z"/>
    </g>
</svg>
