<?xml version="1.0" encoding="UTF-8" standalone="no"?>
<!DOCTYPE svg PUBLIC "-//W3C//DTD SVG 1.1//EN" "http://www.w3.org/Graphics/SVG/1.1/DTD/svg11.dtd">
<svg width="100%" height="100%" viewBox="0 0 1024 1024" version="1.1" xmlns="http://www.w3.org/2000/svg" xmlns:xlink="http://www.w3.org/1999/xlink" xml:space="preserve" xmlns:serif="http://www.serif.com/" style="fill-rule:evenodd;clip-rule:evenodd;stroke-linejoin:round;stroke-miterlimit:2;">
    <g transform="matrix(2.78261,0,0,2.78261,-317.217,-317.217)">
        <path d="M390,298.106C390,298.071 390,298.035 390,298C390,247.224 348.776,206 298,206C266.006,206 237.804,222.367 221.318,247.178L195.945,205.148C221.193,177.416 257.579,160 298,160C374.164,160 436,221.836 436,298C436,298.035 436,298.071 436,298.106L459,298.106L413,374.373L367,298.106L390,298.106ZM160,298.106L137,298.106L183,221.733L229,298.106L206,298.106C206.058,348.834 247.259,390 298,390C329.972,390 358.157,373.655 374.648,348.873L400.017,390.895C374.77,418.601 338.401,436 298,436C221.871,436 160.058,374.222 160,298.106Z"/>
    </g>
</svg>
