<?xml version="1.0" encoding="UTF-8" standalone="no"?>
<!DOCTYPE svg PUBLIC "-//W3C//DTD SVG 1.1//EN" "http://www.w3.org/Graphics/SVG/1.1/DTD/svg11.dtd">
<svg width="100%" height="100%" viewBox="0 0 1024 1024" version="1.1" xmlns="http://www.w3.org/2000/svg" xmlns:xlink="http://www.w3.org/1999/xlink" xml:space="preserve" xmlns:serif="http://www.serif.com/" style="fill-rule:evenodd;clip-rule:evenodd;stroke-linejoin:round;stroke-miterlimit:2;">
    <g transform="matrix(-6.12323e-17,1,-0.828989,-5.07609e-17,1160.71,512)">
        <path d="M218.285,891.502C231.359,901.851 240,919.691 240,939.947C240,940.555 239.992,941.16 239.977,941.764L240,941.764L240,1279.53L144,1279.53L144,976.876L0.077,896.145L-0.151,896.273L-113.99,832.417L-113.762,832.289L-209.844,778.394C-227.511,769.845 -240,748.984 -240,724.631C-240,723.007 -239.944,721.397 -239.835,719.806L-240,719.806L-240,544L-320,544L-192,287.643L-64,544L-144,544L-144,687.616L-128.266,696.442L-128.478,696.992L218.285,891.502ZM84.86,720.876L144,687.702L144,544L64,544L192,288L320,544L240,544L240,719.806L239.835,719.806C239.944,721.397 240,723.007 240,724.631C240,746.816 229.635,766.103 214.433,775.825L214.459,775.892L212.766,776.841C212.387,777.057 212.007,777.27 211.625,777.481L198.699,784.732L84.86,720.876ZM-86.463,944.688L-144,976.962L-144,1279.53L-240,1279.53L-240,941.764L-239.977,941.764C-239.992,941.16 -240,940.555 -240,939.947C-240,915.595 -227.511,894.734 -209.844,886.184L-200.302,880.832L-86.463,944.688Z"/>
    </g>
</svg>
