<?xml version="1.0" encoding="UTF-8" standalone="no"?>
<!DOCTYPE svg PUBLIC "-//W3C//DTD SVG 1.1//EN" "http://www.w3.org/Graphics/SVG/1.1/DTD/svg11.dtd">
<svg width="100%" height="100%" viewBox="0 0 1024 1024" version="1.1" xmlns="http://www.w3.org/2000/svg" xmlns:xlink="http://www.w3.org/1999/xlink" xml:space="preserve" xmlns:serif="http://www.serif.com/" style="fill-rule:evenodd;clip-rule:evenodd;stroke-linejoin:round;stroke-miterlimit:2;">
    <g transform="matrix(1.14286,0,0,1.14286,-33.1429,54.8571)">
        <path d="M623.131,230.908C618.847,225.989 616.25,219.561 616.25,212.531C616.25,197.077 628.797,184.531 644.25,184.531C653.379,184.531 661.494,188.909 666.607,195.679L666.653,195.643C710.14,252.28 736,323.144 736,400C736,476.008 710.707,546.155 668.086,602.477C663.037,609.819 654.577,614.637 645,614.637C629.546,614.637 617,602.091 617,586.637C617,580.534 618.957,574.884 622.277,570.281L622.243,570.255C658.463,523.065 680,464.028 680,400C680,336.497 658.814,277.904 623.131,230.908ZM533.299,297.755C529.801,293.082 527.729,287.281 527.729,281C527.729,265.546 540.275,253 555.729,253C565.165,253 573.518,257.678 578.592,264.84C607.086,302.418 624,349.249 624,400C624,450.185 607.461,496.537 579.541,533.898C579.127,534.493 578.691,535.072 578.233,535.632L577.812,536.182L577.787,536.164C572.65,542.142 565.036,545.932 556.543,545.932C541.089,545.932 528.543,533.385 528.543,517.932C528.543,512.076 530.344,506.638 533.422,502.142L533.38,502.109C555.091,473.802 568,438.397 568,400C568,361.547 555.053,326.094 533.284,297.766L533.299,297.755ZM274,292.595L477,104.197L476.787,695.803L274,507.331L274,292.595ZM242.5,492.75L179.5,492.75C167.91,492.75 158.5,483.34 158.5,471.75L158.5,328.25C158.5,316.66 167.91,307.25 179.5,307.25L242.5,307.25L242.5,492.75Z"/>
    </g>
</svg>
