<?xml version="1.0" encoding="UTF-8" standalone="no"?>
<!DOCTYPE svg PUBLIC "-//W3C//DTD SVG 1.1//EN" "http://www.w3.org/Graphics/SVG/1.1/DTD/svg11.dtd">
<svg width="100%" height="100%" viewBox="0 0 1024 1024" version="1.1" xmlns="http://www.w3.org/2000/svg" xmlns:xlink="http://www.w3.org/1999/xlink" xml:space="preserve" xmlns:serif="http://www.serif.com/" style="fill-rule:evenodd;clip-rule:evenodd;stroke-linejoin:round;stroke-miterlimit:2;">
    <g transform="matrix(0.000597996,-1.66393,1.0857,0.000390188,423.847,937.766)">
        <path d="M192.136,-165.756L192.121,-232.073C192.118,-244.273 198.579,-254.182 206.539,-254.187L305.101,-254.241C313.062,-254.245 319.527,-244.344 319.53,-232.143L319.546,-165.827L192.136,-165.756ZM418.912,328.322C422.278,323.879 426.657,321.191 431.444,321.188C442.058,321.183 450.678,334.385 450.682,350.652C450.684,360.234 447.697,368.755 443.071,374.142L443.091,374.182C391.241,435.227 326.363,471.546 255.991,471.585C185.607,471.624 120.702,435.364 68.82,374.359L68.84,374.32C64.226,368.937 61.244,360.431 61.242,350.866C61.238,334.599 69.853,321.388 80.467,321.382C85.253,321.379 89.634,324.062 93.002,328.501C138.266,381.315 194.752,412.671 255.977,412.637C317.201,412.603 373.673,381.185 418.912,328.322ZM372.075,234.814C375.452,230.302 379.867,227.567 384.695,227.564C395.309,227.558 403.93,240.76 403.934,257.028C403.936,266.637 400.931,275.18 396.282,280.565L396.307,280.614C357.417,326.411 308.751,353.66 255.963,353.689C203.757,353.718 155.571,327.12 116.876,282.277C111.832,276.964 108.521,268.06 108.518,257.979C108.514,241.712 117.129,228.501 127.743,228.495C131.935,228.492 135.816,230.55 138.978,234.044L138.996,234.008C171.418,272.116 211.972,294.765 255.949,294.741C299.565,294.717 339.805,272.394 372.075,234.814ZM326.139,140.278C329.348,136.594 333.332,134.41 337.646,134.408C348.26,134.402 356.88,147.604 356.884,163.872C356.887,173.805 353.675,182.599 348.758,187.943C322.955,217.951 290.793,235.773 255.935,235.793C221.466,235.812 189.626,218.419 163.957,189.044C163.548,188.608 163.151,188.149 162.766,187.667L162.388,187.224L162.401,187.198C158.293,181.793 155.688,173.779 155.686,164.839C155.683,148.572 164.297,135.36 174.911,135.355C178.933,135.352 182.668,137.246 185.758,140.485L185.78,140.44C205.228,163.284 229.549,176.859 255.921,176.844C282.333,176.83 306.68,163.188 326.131,140.263L326.139,140.278ZM329.619,-132.674L459.069,80.942L52.729,80.942L182.129,-132.593L329.619,-132.674Z"/>
    </g>
</svg>
