<?xml version="1.0" encoding="UTF-8" standalone="no"?>
<!DOCTYPE svg PUBLIC "-//W3C//DTD SVG 1.1//EN" "http://www.w3.org/Graphics/SVG/1.1/DTD/svg11.dtd">
<svg width="100%" height="100%" viewBox="0 0 1024 1024" version="1.1" xmlns="http://www.w3.org/2000/svg" xmlns:xlink="http://www.w3.org/1999/xlink" xml:space="preserve" xmlns:serif="http://www.serif.com/" style="fill-rule:evenodd;clip-rule:evenodd;stroke-linejoin:round;stroke-miterlimit:2;">
    <g transform="matrix(0.00047459,-1.32055,0.710938,0.000255503,147.757,849.93)">
        <path d="M60.636,512L-0,512L163.048,185.903L348.89,185.779L512,512L451.456,512C409.793,393.528 337.759,315.193 255.962,315.248C174.225,315.302 102.267,393.618 60.636,512ZM175.658,135.257L175.638,33.983C175.634,15.351 183.775,0.219 193.806,0.212L317.996,0.13C328.027,0.123 336.173,15.244 336.177,33.876L336.197,135.15L175.658,135.257ZM452.933,748.347C452.972,950.19 364.782,1114.12 256.117,1114.19C147.451,1114.27 59.197,950.453 59.158,748.61C59.119,546.767 147.31,382.837 255.975,382.764C364.64,382.692 452.894,546.504 452.933,748.347ZM345.77,521.881C320.635,487.472 289.581,467.137 255.991,467.16C172.403,467.216 104.564,593.316 104.594,748.58C104.606,811.033 115.597,868.752 134.173,915.439L345.77,521.881ZM166.322,975.076C191.456,1009.49 222.511,1029.82 256.1,1029.8C339.689,1029.74 407.528,903.641 407.498,748.377C407.486,685.924 396.495,628.205 377.919,581.519L166.322,975.076Z"/>
    </g>
</svg>
