<?xml version="1.0" encoding="UTF-8" standalone="no"?>
<!DOCTYPE svg PUBLIC "-//W3C//DTD SVG 1.1//EN" "http://www.w3.org/Graphics/SVG/1.1/DTD/svg11.dtd">
<svg width="100%" height="100%" viewBox="0 0 1024 1024" version="1.1" xmlns="http://www.w3.org/2000/svg" xmlns:xlink="http://www.w3.org/1999/xlink" xml:space="preserve" xmlns:serif="http://www.serif.com/" style="fill-rule:evenodd;clip-rule:evenodd;stroke-linejoin:round;stroke-miterlimit:2;">
    <g transform="matrix(0.761905,0,0,0.761905,119.238,207.238)">
        <path d="M599.949,246.632C594.702,239.623 591.593,230.921 591.593,221.5C591.593,198.32 610.413,179.5 633.593,179.5C647.748,179.5 660.277,186.518 667.888,197.26C710.629,253.627 736,323.874 736,400C736,475.277 711.192,544.805 669.312,600.848C668.691,601.74 668.036,602.608 667.349,603.448L666.717,604.274L666.681,604.245C658.976,613.214 647.553,618.898 634.814,618.898C611.634,618.898 592.814,600.078 592.814,576.898C592.814,568.114 595.516,559.957 600.133,553.213L600.07,553.164C632.636,510.703 652,457.595 652,400C652,342.321 632.58,289.141 599.927,246.65L599.949,246.632ZM211,238.892L515.5,-43.705L515.181,843.705L211,560.996L211,238.892ZM163.75,539.125L69.25,539.125C51.865,539.125 37.75,525.01 37.75,507.625L37.75,292.375C37.75,274.99 51.865,260.875 69.25,260.875L163.75,260.875L163.75,539.125Z"/>
    </g>
</svg>
